PathFileType	4	(X/Y/Z)	29_2_70_p1_0-359_filt_butterworth.trc
DataRate	CameraRate	NumFrames	NumMarkers	Units	OrigDataRate	OrigDataStartFrame	OrigNumFrames
53.0	53.0	7	27	m	53.0	269	359
Frame#	Time	RHip			RKnee			RAnkle			RBigToe			RSmallToe			RHeel			LHip			LKnee			LAnkle			LBigToe			LSmallToe			LHeel			Neck			Head			Nose			RShoulder			RElbow			RWrist			RThumb			RIndex			RPinky			LShoulder			LElbow			LWrist			LThumb			LIndex			LPinky			
		X1	Y1	Z1	X2	Y2	Z2	X3	Y3	Z3	X4	Y4	Z4	X5	Y5	Z5	X6	Y6	Z6	X7	Y7	Z7	X8	Y8	Z8	X9	Y9	Z9	X10	Y10	Z10	X11	Y11	Z11	X12	Y12	Z12	X13	Y13	Z13	X14	Y14	Z14	X15	Y15	Z15	X16	Y16	Z16	X17	Y17	Z17	X18	Y18	Z18	X19	Y19	Z19	X20	Y20	Z20	X21	Y21	Z21	X22	Y22	Z22	X23	Y23	Z23	X24	Y24	Z24	X25	Y25	Z25	X26	Y26	Z26	X27	Y27	Z27	
269	5.075471698113208	0.3652078295018583	0.7426517078664696	0.8093738641746767	0.3349596521309299	0.3050671898341748	0.8045245449309941	0.29799811805604776	-0.12439130648415522	0.7982775606830178	0.28774555479424435	-0.08318061467502275	0.5832988234984189	0.343582352361103	-0.0851706802938158	0.6122235171867527	0.27033083323265106	-0.2191347165833034	0.8834466864242815	0.140270984513801	0.7488970650888213	0.8043358572775453	0.11385330049416646	0.3310442919828318	0.7865890647309458	0.09937830519436064	-0.10214336447360692	0.7857134496940731	0.1228139385192797	-0.06278242822934367	0.5799424098814262	0.06547862878745064	-0.08538053185774071	0.6297249009795902	0.10752764417008912	-0.17577192395422883	0.8390042409747142	0.28149316432655286	1.3363043483784636	0.8408792664341205	0.3021593649287795	1.586398042952172	0.8346326046878754	0.28740499839923184	1.4944523493554696	0.7308051412215888	0.42981786431166213	1.2140537293853257	0.8147835248630757	0.47537926609488856	0.9320033437731883	0.8476258054980083	0.46604184089282197	0.6758974577367406	0.7827345595482053	0.41054530385831106	0.6025779597630563	0.7102702994732684	0.4154203852986016	0.5913355807270961	0.7125907711791661	0.4583325087520397	0.5639591156619874	0.7735569840104249	0.122577833780815	1.2281668184088332	0.8230778700900669	0.041467320260441025	0.9542868467367336	0.8262367878161703	0.02823004834826443	0.7173039066331635	0.7802532054145641	0.08340884709440857	0.6398589442372158	0.7144560350499103	0.054244384647489347	0.6156184271726982	0.7055019201343684	0.01242370136655515	0.5978298506287542	0.7542181527547827	
270	5.09433962264151	0.3652784169952322	0.7429525555332175	0.8094723657179764	0.33519891598983026	0.3047412899406513	0.8046580951803737	0.2978081628228629	-0.12478440212434842	0.7988983780944046	0.2875467470515487	-0.0837271625885859	0.5839843190216362	0.34374900457187557	-0.08500385883937105	0.6120285802632729	0.27017750369805127	-0.21947348043839787	0.8839965443021799	0.1405018243950331	0.7490589366075759	0.8039129855642567	0.11396185388964174	0.33095941223060615	0.7866543819103751	0.09944692685872865	-0.10228424429824597	0.7862544792842688	0.12278410663852735	-0.0628494083792413	0.5799940645343091	0.06490547149481991	-0.08554864813101448	0.6312884254596866	0.10738500607446944	-0.17589493756530789	0.838838945899648	0.28148580836345827	1.3362120581637515	0.8408475632339691	0.30154117655246665	1.5863090493350482	0.8344713963581255	0.28608272469757345	1.4943706784710478	0.7305152996579001	0.42979478143136474	1.2138643264326927	0.814527119375066	0.4763149962876025	0.9328194660518646	0.8476265645946024	0.46522923698518215	0.6745808136867181	0.7857349570146244	0.4105134242544114	0.6025060456641169	0.7103478994571983	0.4153879181175404	0.5913003098448548	0.712675531300649	0.45817225763608294	0.5640911286110255	0.7732528758857297	0.12286035222183125	1.2284662343219468	0.825243683732084	0.0416155504610586	0.953198643451754	0.8275325950902543	0.02825814293616686	0.7177490876656523	0.7805362686693109	0.0835177323801487	0.6398704459733561	0.7145581554660092	0.054397912129270955	0.616392268272393	0.7055351698549563	0.012426759726952525	0.5978707800077573	0.7540926755779634	
271	5.113207547169812	0.3653497284167014	0.7432646901054749	0.8095674904567987	0.3354006940728079	0.3045357230341072	0.8047927679088691	0.29760257229077924	-0.1252822933647732	0.7994530661897385	0.2871912966284322	-0.08492709021948057	0.5855170220727116	0.34379986877708635	-0.0850478579298775	0.6121276936080662	0.2701256813863388	-0.21961689660294176	0.8841906983383945	0.1408066631974117	0.7492210893955933	0.8032711397075216	0.1140700385018522	0.3306624173978421	0.7867536800885456	0.09952616676438737	-0.10270286063651617	0.786688362891848	0.12274068441094868	-0.0629050647108367	0.580052180240528	0.06473532407699137	-0.08517949286685698	0.6318954864322588	0.10717643664848261	-0.17605864387216555	0.8384343622304438	0.28143308713944026	1.3361029286505515	0.8409592309387985	0.3008210882479929	1.5860487292201317	0.8354381573471628	0.2846702331386746	1.4945190785376166	0.7297890293971809	0.42975506911387407	1.2140150160920917	0.8143122967493102	0.4773332730185297	0.9337410981223427	0.8476494816399969	0.4644592898641718	0.6733456437740538	0.7885534092198051	0.410475956286972	0.6024570854268816	0.7104011200816731	0.4153532860605404	0.5912897895215417	0.7127386459733683	0.4580340929148519	0.564150439388881	0.773111309276868	0.12302962815455919	1.2286938047252893	0.8271077438106218	0.04189039777588609	0.9516407484699019	0.8298446368037586	0.028568612261283672	0.7185623677803703	0.7802937821661136	0.08362557604868313	0.6398949151521526	0.7146247317465182	0.05454822877424979	0.6170913995613558	0.7055264678721431	0.012448266209875129	0.5978991348421636	0.7539726393106385	
272	5.132075471698113	0.3654200095574827	0.7435802185323985	0.8096617193776581	0.3355692182822176	0.3044787174001976	0.8049213328828883	0.29739729162817435	-0.12584818959770275	0.7998995023520323	0.2868459508702562	-0.08628032055059565	0.5872482649476481	0.3437602269079011	-0.08517427704627055	0.612342975910026	0.2702104406217245	-0.21971242950798195	0.8840181381010308	0.1411624590788469	0.7494291835180414	0.8024703185774331	0.1141750795060032	0.33015086097784585	0.7868826627282323	0.09960889656481282	-0.10330418896767775	0.7869921174290048	0.12270528925326377	-0.0629200280026377	0.5800896901106151	0.06518356759518981	-0.08437897993608644	0.6313951448858802	0.10697424716545574	-0.17632756816202208	0.8380110475642253	0.2813018408531246	1.3360894734591775	0.8413488634701767	0.3000736158311077	1.5857094009000792	0.8373950687524433	0.2836640733377294	1.4950707724719003	0.7284514641071014	0.4297014621372789	1.2144755490606503	0.8141534375090473	0.4782477871405289	0.9346961197000285	0.847789052126854	0.4638434487144877	0.6723647055349515	0.7908018844760115	0.41043600634473	0.6024427061030395	0.7104334001373814	0.4153158697973115	0.5913056991460077	0.7127894634479633	0.45791888478244047	0.5641601353142505	0.7730879479875141	0.12323704851250827	1.2289806713898164	0.8279655032232882	0.04225929647900024	0.9497950012902363	0.8328999082352871	0.028895296900431234	0.71939805432756	0.7800212150771917	0.08358155500993827	0.6399467458256243	0.7146081196260649	0.05465956073288975	0.6176154354418673	0.7055041398453885	0.012481967087878455	0.5979320118560336	0.7538500350205458	
273	5.150943396226415	0.3654894098617974	0.7438937959452209	0.809749877039435	0.33570295335118505	0.30459129530579365	0.8050350240608264	0.2972192710701221	-0.12641335949809562	0.8001854826033599	0.28661606129352923	-0.08727182830929855	0.5885101908688446	0.3436954442860829	-0.08525119080742062	0.6124848925034017	0.27040265645305767	-0.21977395472140476	0.8835552465632518	0.14155587481064327	0.7497833095746547	0.8015416424282903	0.11426978653343584	0.3295005215234277	0.7870212471549279	0.09967769134594195	-0.1038878715971317	0.7871512027051935	0.12270113891859893	-0.06288921220036585	0.580094857877993	0.0662830927405114	-0.08338654096762355	0.62997383532283	0.10683138046369717	-0.17679912199683093	0.8378427257925224	0.28117461057989085	1.3363040969533204	0.8418162660153055	0.29930244049577404	1.5854463685874505	0.8399751810056798	0.2833931746735057	1.4959188266929173	0.7266936699841621	0.429658667110112	1.2150777579592544	0.8140997115725824	0.4787954404556626	0.9355715146007892	0.8481079449592555	0.4634816147703126	0.6717928707311336	0.7921388340732457	0.4103954355349642	0.6024621919657143	0.7104451649688073	0.41527519424638193	0.5913395414490289	0.7128429335408146	0.4578150029271193	0.5641586963220522	0.7731093037089012	0.12361843732357919	1.2294220184288207	0.8272480930020967	0.042646448470766395	0.9479273610404692	0.836089738474699	0.029108508056382633	0.7200468258021151	0.7799239398642461	0.08327859470979877	0.6400260600417432	0.7145031522616822	0.0546969085990675	0.6179041148073801	0.7055266654872484	0.012521853584650168	0.5979739778444211	0.7537391106985086	
274	5.169811320754717	0.3655586897040235	0.7442035802204913	0.809812702073052	0.3357878024354369	0.3048668999111601	0.8051063365751769	0.29709230673923204	-0.12690912507317556	0.8002844272634202	0.28652887892223444	-0.08771871999211237	0.589076868266589	0.3436545505318677	-0.08525203573666805	0.6124947573875826	0.2705942979214041	-0.21974302730477582	0.8829905691121637	0.14197804878358863	0.7503061495616534	0.8005108352427964	0.114344054769609	0.32883135955480763	0.7871441743047757	0.09971745016633732	-0.10430373547227118	0.7871824777213003	0.12273857039392373	-0.06281826482225547	0.5800666507167699	0.06786004089983026	-0.08241735038045771	0.6279184857147082	0.10672694854214955	-0.17752747821275922	0.8380243962561547	0.28124421639659825	1.3368331334176808	0.8418251940361767	0.29844019410434186	1.5853657901000702	0.8428339916887997	0.2837989190020765	1.4968800882644286	0.7248077135704409	0.4296780526058882	1.2156905110898273	0.814268101357096	0.4787908035473159	0.936100661419615	0.8485333440052201	0.46339670189736504	0.6716637844582085	0.7924879128874505	0.4103597009515949	0.6025021160896005	0.7104329137732953	0.41523671801697637	0.5913786681748961	0.7129007449494378	0.4577382616278334	0.5641530457637342	0.773164825527584	0.12415436012685417	1.2301013582504432	0.8245998189871493	0.04294236910338271	0.9464284424252416	0.8385314777524652	0.029221692516833854	0.7205166816591643	0.7799378920533209	0.08273322520583806	0.6401212964604477	0.7143417765518743	0.05465850092048484	0.6179521504450028	0.7056131316376844	0.01255904061043419	0.5980093583050898	0.7536861682503668	
275	5.188679245283019	0.3656267562765511	0.7445090902018173	0.8098274659688048	0.33580285663032233	0.3052351519454043	0.8051169982187082	0.2969966471805651	-0.1273624239694739	0.8002765075610615	0.28659782012224344	-0.0876535971753839	0.5890018652532332	0.3436527668141951	-0.08518965515957815	0.6123698976650196	0.2706887167147014	-0.21960974180372256	0.8825377396778283	0.14242397403715	0.7509276551483863	0.7994096166312363	0.114388525407019	0.3282624261797481	0.7872362900960734	0.09972129104465184	-0.10449349793830931	0.7871137447026697	0.12279838865427861	-0.06270846777070173	0.5800032125339174	0.0697029477048808	-0.08147489041675265	0.6254192304422201	0.1065783354623595	-0.1784691784952381	0.8384020428442425	0.28164363248551033	1.337670005336298	0.8409838193099464	0.2975893706484384	1.5855321071616217	0.8454214983985746	0.28459404261942967	1.4978252223052573	0.7229858745540249	0.42978513170441746	1.216316737701632	0.8147913224759624	0.4782481983750583	0.9360625034367069	0.8488865412229183	0.4634839513883102	0.6718050948137617	0.792225647845335	0.4103352960467408	0.6025458930377683	0.7103986548816228	0.41520883414714416	0.5914138463079293	0.7129469926020106	0.4577106684009271	0.5641367804053761	0.7732568628426514	0.12475265022093422	1.2310629231817103	0.8202395669069669	0.043056917300253836	0.9457341236253387	0.8394687238371372	0.02926404746531102	0.7209198121419085	0.78000815658646	0.08203641214796242	0.640225076107988	0.7141582163286138	0.054573469614608766	0.6178479807466203	0.7057459098961383	0.012578400776796448	0.5980170469006805	0.7537363943054394	
